<svg width="145" height="48" viewBox="0 0 145 48" fill="none" xmlns="http://www.w3.org/2000/svg">
<path d="M24 0C10.7621 0 0 10.7621 0 24C0 37.2379 10.7621 48 24 48C37.2379 48 48 37.2379 48 24C48 10.7621 37.2379 0 24 0ZM24 45.7263C12.0253 45.7263 2.27368 35.9747 2.27368 24C2.27368 12.0253 12.0253 2.27368 24 2.27368C35.9747 2.27368 45.7263 11.9747 45.7263 24C45.7263 35.9747 35.9747 45.7263 24 45.7263Z" fill="#EC4700"/>
<path d="M27.4358 23.4442C27.7389 24.5558 31.0737 24.7579 33.0442 24.7579C34.6105 24.7579 38.501 24.6063 40.6737 23.2926C41.9368 22.4842 42.4421 21.12 42.0379 19.5032C41.1284 15.9663 39.36 15.4611 38.3495 15.4611C37.7937 15.4611 37.3895 15.6632 37.3389 15.6632C35.6716 16.32 33.0442 18.0379 31.2758 19.3516C27.1326 22.3832 27.3347 23.0905 27.4358 23.4442Z" fill="#EC4700"/>
<path d="M40.6232 26.9305C38.8042 25.8189 35.52 25.7179 34.1558 25.7179C33.4484 25.7179 29.8105 25.7684 29.5579 26.6779C29.2042 27.9411 36.0758 32.4379 37.9453 33.1958C37.9958 33.1958 38.299 33.3474 38.7537 33.3474C39.5621 33.3474 40.9769 32.8926 41.6842 30.0126C42.0379 28.6484 41.6337 27.5368 40.6232 26.9305Z" fill="#EC4700"/>
<path d="M20.4632 24.7074C20.16 23.5958 16.1684 23.4948 14.9558 23.4948C13.3895 23.4948 9.44844 23.6463 7.32634 24.96C6.1137 25.7179 5.60844 27.0316 6.01265 28.6484C6.8716 32.1348 8.64002 32.64 9.54949 32.64C10.1053 32.64 10.459 32.4884 10.5095 32.4884C12.9348 31.5284 20.8674 26.2737 20.4632 24.7074Z" fill="#EC4700"/>
<path d="M7.02314 21.5242C8.84209 22.6358 12.1263 22.7368 13.4905 22.7368C14.1979 22.7368 17.8358 22.6863 18.0884 21.7768C18.4421 20.5137 11.5705 16.0168 9.70104 15.2589C9.65051 15.2589 9.34735 15.1074 8.89262 15.1074C8.08419 15.1074 6.66946 15.5621 5.96209 18.4421C5.60841 19.8063 6.01262 20.9179 7.02314 21.5242Z" fill="#EC4700"/>
<path d="M25.4653 21.2716C25.5663 21.3221 25.6674 21.3221 25.819 21.3221C27.5369 21.3221 35.6211 15.2084 36.1769 12.581C36.2779 12.2779 36.7326 9.75157 32.3874 7.67999C30.7705 6.92209 29.4063 6.51788 28.2442 6.51788C26.5263 6.51788 25.8695 7.42736 25.7179 7.62946C24.2526 9.49894 24.2021 17.3305 24.8084 20.0589C24.96 20.7663 25.1621 21.12 25.4653 21.2716Z" fill="#EC4700"/>
<path d="M22.4842 21.5747C22.6358 21.5747 22.7874 21.5242 22.8884 21.4737C23.1916 21.3221 23.3432 20.9179 23.4947 20.2105C23.9495 17.381 23.2926 9.44841 21.6758 7.62946C21.5242 7.42736 20.9179 6.66946 19.4021 6.66946C18.1895 6.66946 16.6737 7.17473 14.9558 8.13473C10.6611 10.56 11.3179 13.0863 11.4695 13.3895C12.0758 15.9663 20.6147 21.5747 22.4842 21.5747Z" fill="#EC4700"/>
<path d="M25.92 27.0821C25.8189 27.0821 25.6674 27.0821 25.5663 27.1326C25.2631 27.2842 25.061 27.6379 24.9095 28.2947C24.3031 30.9726 24.4042 38.501 25.8189 40.3705C25.9705 40.6231 26.5768 41.4821 28.2442 41.4821C29.3558 41.4821 30.72 41.0779 32.2863 40.3705C36.5305 38.3495 36.0758 35.9242 35.9747 35.5705C35.4695 32.9937 27.5874 27.0821 25.92 27.0821Z" fill="#EC4700"/>
<path d="M22.939 26.5263C22.8379 26.4758 22.6863 26.4253 22.5348 26.4253C20.6653 26.4253 12.3284 32.3368 11.7221 34.9642C11.6211 35.2674 11.0148 37.8442 15.4105 40.1179C17.1284 41.0274 18.5937 41.4316 19.7558 41.4316C21.3726 41.4316 22.0295 40.6232 22.1811 40.3705C23.7474 38.5011 24.1011 30.5684 23.5453 27.7389C23.3937 27.0821 23.2421 26.6779 22.939 26.5263Z" fill="#EC4700"/>
<path d="M61.752 32.5V15.7H72.12V18.052H64.344V22.9H71.496V25.252H64.344V32.5H61.752ZM74.7146 32.5V20.668H77.1386V22.06H77.5226C77.7146 21.564 78.0186 21.204 78.4346 20.98C78.8666 20.74 79.3946 20.62 80.0186 20.62H81.4346V22.852H79.9226C79.1226 22.852 78.4666 23.076 77.9546 23.524C77.4426 23.956 77.1866 24.628 77.1866 25.54V32.5H74.7146ZM88.998 32.836C87.798 32.836 86.75 32.588 85.854 32.092C84.958 31.58 84.254 30.868 83.742 29.956C83.246 29.028 82.998 27.956 82.998 26.74V26.452C82.998 25.22 83.246 24.148 83.742 23.236C84.238 22.308 84.926 21.596 85.806 21.1C86.702 20.588 87.734 20.332 88.902 20.332C90.038 20.332 91.03 20.588 91.878 21.1C92.742 21.596 93.414 22.292 93.894 23.188C94.374 24.084 94.614 25.132 94.614 26.332V27.268H85.518C85.55 28.308 85.894 29.14 86.55 29.764C87.222 30.372 88.054 30.676 89.046 30.676C89.974 30.676 90.67 30.468 91.134 30.052C91.614 29.636 91.982 29.156 92.238 28.612L94.278 29.668C94.054 30.116 93.726 30.588 93.294 31.084C92.878 31.58 92.326 31.996 91.638 32.332C90.95 32.668 90.07 32.836 88.998 32.836ZM85.542 25.372H92.094C92.03 24.476 91.71 23.78 91.134 23.284C90.558 22.772 89.806 22.516 88.878 22.516C87.95 22.516 87.19 22.772 86.598 23.284C86.022 23.78 85.67 24.476 85.542 25.372ZM102.438 32.836C100.934 32.836 99.6856 32.5 98.6936 31.828C97.7016 31.156 97.0936 30.14 96.8696 28.78L99.1736 28.228C99.3016 28.884 99.5176 29.404 99.8216 29.788C100.126 30.172 100.502 30.444 100.95 30.604C101.414 30.764 101.91 30.844 102.438 30.844C103.222 30.844 103.822 30.692 104.238 30.388C104.67 30.084 104.886 29.692 104.886 29.212C104.886 28.732 104.686 28.38 104.286 28.156C103.886 27.932 103.294 27.748 102.51 27.604L101.694 27.46C100.894 27.316 100.166 27.108 99.5096 26.836C98.8536 26.564 98.3336 26.188 97.9496 25.708C97.5656 25.228 97.3736 24.612 97.3736 23.86C97.3736 22.74 97.7896 21.876 98.6216 21.268C99.4536 20.644 100.558 20.332 101.934 20.332C103.262 20.332 104.35 20.636 105.198 21.244C106.062 21.836 106.622 22.644 106.878 23.668L104.574 24.316C104.43 23.596 104.126 23.092 103.662 22.804C103.198 22.5 102.622 22.348 101.934 22.348C101.262 22.348 100.734 22.476 100.35 22.732C99.9656 22.972 99.7736 23.316 99.7736 23.764C99.7736 24.244 99.9576 24.596 100.326 24.82C100.71 25.044 101.222 25.212 101.862 25.324L102.702 25.468C103.55 25.612 104.326 25.812 105.03 26.068C105.734 26.324 106.286 26.692 106.686 27.172C107.102 27.652 107.31 28.292 107.31 29.092C107.31 30.276 106.87 31.196 105.99 31.852C105.11 32.508 103.926 32.836 102.438 32.836ZM110.199 32.5V15.7H112.671V22.348H113.055C113.215 22.044 113.439 21.748 113.727 21.46C114.031 21.172 114.423 20.94 114.903 20.764C115.399 20.572 116.023 20.476 116.775 20.476C117.671 20.476 118.463 20.676 119.151 21.076C119.855 21.476 120.407 22.044 120.807 22.78C121.207 23.5 121.407 24.372 121.407 25.396V32.5H118.935V25.588C118.935 24.564 118.679 23.812 118.167 23.332C117.655 22.836 116.951 22.588 116.055 22.588C115.031 22.588 114.207 22.924 113.583 23.596C112.975 24.268 112.671 25.244 112.671 26.524V32.5H110.199ZM124.965 32.5V15.7H127.437V32.5H124.965ZM132.473 37.3V35.14H139.073C139.521 35.14 139.745 34.9 139.745 34.42V30.772H139.361C139.217 31.092 138.993 31.404 138.689 31.708C138.401 31.996 138.009 32.236 137.513 32.428C137.017 32.62 136.393 32.716 135.641 32.716C134.745 32.716 133.945 32.516 133.241 32.116C132.537 31.716 131.985 31.148 131.585 30.412C131.185 29.676 130.985 28.804 130.985 27.796V20.668H133.457V27.604C133.457 28.628 133.713 29.388 134.225 29.884C134.737 30.364 135.449 30.604 136.361 30.604C137.369 30.604 138.177 30.268 138.785 29.596C139.409 28.924 139.721 27.948 139.721 26.668V20.668H142.193V34.924C142.193 35.644 141.977 36.22 141.545 36.652C141.129 37.084 140.553 37.3 139.817 37.3H132.473Z" fill="#1F1D1B"/>
</svg>
